<svg width="60" height="92" viewBox="0 0 60 92" fill="none" xmlns="http://www.w3.org/2000/svg">
<path d="M30 91.0797L0.178641 45.6759L30 0.271988L59.8214 45.6759L30 91.0797Z" stroke="#191919" stroke-width="0.298629"/>
<line x1="30" y1="0.524994" x2="30" y2="91.0892" stroke="#191919" stroke-width="0.298629"/>
<line x1="0.137085" y1="45.6578" x2="59.863" y2="45.6578" stroke="#191919" stroke-width="0.298629"/>
<path d="M29.8507 45.8071H0.286377L29.8507 90.6954V45.8071Z" fill="#191919" stroke="#191919" stroke-width="0.298629"/>
<line x1="30.0001" y1="41.589" x2="57.1753" y2="41.589" stroke="#191919" stroke-width="0.298629"/>
<line x1="30.0001" y1="37.3889" x2="54.4877" y2="37.3889" stroke="#191919" stroke-width="0.298629"/>
<line x1="30.0001" y1="33.1888" x2="51.5014" y2="33.1888" stroke="#191919" stroke-width="0.298629"/>
<line x1="30.0001" y1="28.9887" x2="48.8137" y2="28.9887" stroke="#191919" stroke-width="0.298629"/>
<line x1="30.0001" y1="24.7887" x2="46.126" y2="24.7887" stroke="#191919" stroke-width="0.298629"/>
<line x1="30.0001" y1="20.5885" x2="43.4384" y2="20.5885" stroke="#191919" stroke-width="0.298629"/>
<line x1="30.0001" y1="16.3885" x2="40.4521" y2="16.3885" stroke="#191919" stroke-width="0.298629"/>
<line x1="30.0001" y1="12.1884" x2="37.7644" y2="12.1884" stroke="#191919" stroke-width="0.298629"/>
<line x1="30.0001" y1="7.98833" x2="35.0768" y2="7.98833" stroke="#191919" stroke-width="0.298629"/>
<line x1="30.0001" y1="3.78825" x2="32.3891" y2="3.78825" stroke="#191919" stroke-width="0.298629"/>
<mask id="path-15-inside-1_2_122" fill="white">
<path d="M51.6507 33.3381H51.0534V33.0756H51.5013L51.6507 33.3381Z"/>
</mask>
<path d="M51.0534 33.3381H50.7548V33.6367H51.0534V33.3381ZM51.6507 33.3381V33.6367H52.1641L51.9102 33.1905L51.6507 33.3381ZM51.5013 33.0756L51.7609 32.928L51.675 32.777H51.5013V33.0756ZM51.0534 33.0756V32.777H50.7548V33.0756H51.0534ZM51.0534 33.6367H51.6507V33.0395H51.0534V33.6367ZM51.9102 33.1905L51.7609 32.928L51.2418 33.2233L51.3911 33.4858L51.9102 33.1905ZM51.5013 32.777H51.0534V33.3742H51.5013V32.777ZM50.7548 33.0756V33.3381H51.352V33.0756H50.7548Z" fill="#191919" mask="url(#path-15-inside-1_2_122)"/>
<mask id="path-17-inside-2_2_122" fill="white">
<path d="M40.7507 16.5378H40.1534V16.2753H40.6014L40.7507 16.5378Z"/>
</mask>
<path d="M40.1534 16.5378H39.8548V16.8364H40.1534V16.5378ZM40.7507 16.5378V16.8364H41.2641L41.0103 16.3901L40.7507 16.5378ZM40.6014 16.2753L40.861 16.1276L40.7751 15.9767H40.6014V16.2753ZM40.1534 16.2753V15.9767H39.8548V16.2753H40.1534ZM40.1534 16.8364H40.7507V16.2392H40.1534V16.8364ZM41.0103 16.3901L40.861 16.1276L40.3418 16.4229L40.4911 16.6854L41.0103 16.3901ZM40.6014 15.9767H40.1534V16.5739H40.6014V15.9767ZM39.8548 16.2753V16.5378H40.4521V16.2753H39.8548Z" fill="#191919" mask="url(#path-17-inside-2_2_122)"/>
</svg>
